<svg id="Layer_1" data-name="Layer 1" xmlns="http://www.w3.org/2000/svg" viewBox="0 0 117 117"><title>add_user</title><path d="M70.06,73.78a26.39,26.39,0,0,1-34.62,0c-14.23,4.28-25.19,13.77-25.19,22,0,9.42,16.68,15.5,42.5,15.5s42.5-6.08,42.5-15.5C95.25,87.55,84.29,78.06,70.06,73.78Z"/><path d="M37.75,69.16h0a21.52,21.52,0,0,0,30,0h0c6-5.55,9.5-13.9,9.5-22.91,0-16-11-29-24.5-29s-24.5,13-24.5,29C28.25,55.26,31.71,63.61,37.75,69.16Z"/><polygon points="95.64 16.86 95.64 5.75 86.98 5.75 86.98 16.86 75.87 16.86 75.87 25.52 86.98 25.52 86.98 36.63 95.64 36.63 95.64 25.52 106.75 25.52 106.75 16.86 95.64 16.86"/></svg>