<svg id="Layer_1" data-name="Layer 1" xmlns="http://www.w3.org/2000/svg" viewBox="0 0 117 117"><title>bino</title><path d="M88,40.18V20H65V41.89a19.23,19.23,0,0,0-6.48-1.1A20.2,20.2,0,0,0,52,41.9V20H29V40.18l-7,27V97H52V60a15.89,15.89,0,0,1,13,0V97H95V67.18Zm2,27.64V82H70V34H83v6.82ZM83,25v4H70V25ZM47,25v4H34V25ZM34,40.82V34H47V83H27V67.82ZM27,92V88H47v4ZM58.65,53.6a20.82,20.82,0,0,0-6.65,1V47.31a14.05,14.05,0,0,1,6.5-1.52h0A14.12,14.12,0,0,1,65,47.31v7.32A20.8,20.8,0,0,0,58.65,53.6ZM70,92V87H90v5Z"/></svg>