<svg id="Layer_1" data-name="Layer 1" xmlns="http://www.w3.org/2000/svg" viewBox="0 0 117 117"><title>calendar</title><path d="M15.5,24.5v68h86v-68Zm81,63h-76v-40h76Zm-76-45v-13h76v13Z"/><rect x="63" y="51.5" width="9" height="5"/><rect x="81" y="51.5" width="9" height="5"/><rect x="63" y="60.5" width="9" height="5"/><rect x="81" y="60.5" width="9" height="5"/><rect x="63" y="69.5" width="9" height="5"/><rect x="81" y="69.5" width="9" height="5"/><rect x="27" y="60.5" width="9" height="5"/><rect x="45" y="60.5" width="9" height="5"/><rect x="27" y="69.5" width="9" height="5"/><rect x="45" y="69.5" width="9" height="5"/><rect x="27" y="78.5" width="9" height="5"/><rect x="45" y="78.5" width="9" height="5"/><rect x="27" y="33.5" width="9" height="5"/><rect x="81" y="33.5" width="9" height="5"/><rect x="45" y="33.5" width="27" height="5"/></svg>