<svg id="Layer_1" data-name="Layer 1" xmlns="http://www.w3.org/2000/svg" viewBox="0 0 117 117"><title>list</title><path d="M29,27.75v14h77v-14Zm72,9H34v-4h67Z"/><path d="M18,27.75a7,7,0,1,0,7,7A7,7,0,0,0,18,27.75Zm0,9a2,2,0,1,1,2-2A2,2,0,0,1,18,36.75Z"/><path d="M29,65.5h77v-14H29Zm5-9h67v4H34Z"/><path d="M18,51.5a7,7,0,1,0,7,7A7,7,0,0,0,18,51.5Zm0,9a2,2,0,1,1,2-2A2,2,0,0,1,18,60.5Z"/><path d="M29,89.25h77v-14H29Zm5-9h67v4H34Z"/><path d="M18,75.25a7,7,0,1,0,7,7A7,7,0,0,0,18,75.25Zm0,9a2,2,0,1,1,2-2A2,2,0,0,1,18,84.25Z"/></svg>