<svg id="Layer_1" data-name="Layer 1" xmlns="http://www.w3.org/2000/svg" viewBox="0 0 117 117"><title>sort_asc</title><polygon points="85.5 29 74.73 39.77 78.27 43.3 83 38.57 83 89.04 88 89.04 88 38.57 92.73 43.3 96.27 39.77 85.5 29"/><rect x="22.5" y="29" width="45" height="5"/><rect x="22.5" y="38" width="39" height="5"/><rect x="22.5" y="47" width="33" height="5"/><rect x="22.5" y="56" width="27" height="5"/><path d="M53.34,66.37,46.44,89h6.14l1.12-4.82H60L61.15,89H67.5L60.6,66.37Zm1.45,13.22L55.16,78c.55-2.17,1.11-4.89,1.6-7.19h.14c.56,2.27,1.12,5,1.67,7.19l.37,1.57Z"/><polygon points="39.17 70 39.17 66.37 23.41 66.37 23.41 71.39 31.78 71.39 22.5 85.41 22.5 89.04 39.24 89.04 39.24 84.01 29.89 84.01 39.17 70"/></svg>