<svg id="Layer_1" data-name="Layer 1" xmlns="http://www.w3.org/2000/svg" viewBox="0 0 117 117"><title>sort_desc</title><polygon points="92.73 74.73 88 79.47 88 29 83 29 83 79.47 78.27 74.73 74.73 78.27 85.5 89.04 96.27 78.27 92.73 74.73"/><rect x="22.5" y="29" width="45" height="5"/><rect x="22.5" y="38" width="39" height="5"/><rect x="22.5" y="47" width="33" height="5"/><rect x="22.5" y="56" width="27" height="5"/><path d="M29.2,66.37,22.29,89h6.14l1.13-4.82h6.32L37,89h6.34l-6.9-22.67Zm1.44,13.22L31,78c.56-2.17,1.12-4.89,1.61-7.19h.13c.56,2.27,1.12,5,1.68,7.19l.37,1.57Z"/><polygon points="67.43 70 67.43 66.37 51.67 66.37 51.67 71.39 60.04 71.39 50.76 85.41 50.76 89.04 67.5 89.04 67.5 84.01 58.15 84.01 67.43 70"/></svg>