<svg id="Layer_1" data-name="Layer 1" xmlns="http://www.w3.org/2000/svg" viewBox="0 0 117 117"><defs><style>.cls-1{fill:none;}</style></defs><title>user_alt</title><path class="cls-1" d="M75.81,68a26.39,26.39,0,0,1-34.62,0C27,72.31,16,81.8,16,90c0,9.42,16.68,15.5,42.5,15.5S101,99.42,101,90C101,81.8,90,72.31,75.81,68Z"/><path class="cls-1" d="M73.5,63.41c6-5.55,9.5-13.9,9.5-22.91,0-16-11-29-24.5-29S34,24.51,34,40.5c0,9,3.46,17.36,9.5,22.91"/><path class="cls-1" d="M43.5,63.41a21.52,21.52,0,0,0,30,0"/><path d="M34,40.5c0-16,11-29,24.5-29s24.5,13,24.5,29c0,9-3.46,17.36-9.5,22.91h0a21.52,21.52,0,0,1-30,0h0C37.46,57.86,34,49.51,34,40.5Zm24.5,65C32.68,105.5,16,99.42,16,90c0-8.2,11-17.69,25.19-22a26.39,26.39,0,0,0,34.62,0C90,72.31,101,81.8,101,90,101,99.42,84.32,105.5,58.5,105.5Z"/></svg>