<svg id="Layer_1" data-name="Layer 1" xmlns="http://www.w3.org/2000/svg" viewBox="0 0 144 144"><title>arrival_time</title><path d="M90,33A44.92,44.92,0,0,0,55.36,49.28l7.56,5A36,36,0,1,1,57.78,94l-7.54,5A45,45,0,1,0,90,33Z"/><rect x="81" y="21" width="18" height="9"/><polygon points="85.5 51 85.5 69.38 85.5 75.56 85.5 82.39 85.5 82.4 86 82.83 101.23 95.91 107.09 89.08 94.5 78.26 94.5 51 85.5 51"/><polygon points="64.91 72.47 23.71 45 23.71 58.53 9 58.53 9 86.4 23.71 86.4 23.71 99.94 64.91 72.47"/></svg>