<svg id="Layer_1" data-name="Layer 1" xmlns="http://www.w3.org/2000/svg" viewBox="0 0 144 144"><title>bell</title><path d="M72,28l8.25,1.18c6,.86,10.59,2.88,13.5,6,2.53,2.73,2.82,4.93,3,13.15a104.88,104.88,0,0,0,4.49,31.42,101.5,101.5,0,0,0,7.71,18.6,28.81,28.81,0,0,1,2,4.41s0,.15-.08.34c-1.06,3.6-8.58,8.34-23,10.81l-5.17.88-2.21,4.76a9.36,9.36,0,0,1-17,0l-2.21-4.76-5.17-.88c-14.41-2.47-21.93-7.21-23-10.81-.05-.19-.07-.3-.08-.34a28.81,28.81,0,0,1,2-4.41,101.5,101.5,0,0,0,7.71-18.6,104.88,104.88,0,0,0,4.49-31.42c.14-8.22.43-10.42,3-13.15,2.91-3.13,7.45-5.15,13.5-6L72,28M72,9a9.69,9.69,0,0,0-9.69,9.69c0,.2,0,.39,0,.59-6.32.9-13.93,3.19-19.42,9.1C32.78,39.3,41.35,50.17,33.23,76.85c-5.6,18.41-12,21.15-9.69,29.07,3,10.17,17.14,15.5,30.89,17.86a19.37,19.37,0,0,0,35.14,0c13.75-2.36,27.91-7.69,30.89-17.86,2.32-7.92-4.09-10.66-9.69-29.07-8.12-26.68.45-37.55-9.69-48.47-5.49-5.91-13.1-8.2-19.42-9.1,0-.2,0-.39,0-.59A9.69,9.69,0,0,0,72,9Z"/></svg>