<svg id="Layer_1" data-name="Layer 1" xmlns="http://www.w3.org/2000/svg" viewBox="0 0 144 144"><title>binocular</title><path d="M120.27,42V9H82.64V44.82A31.7,31.7,0,0,0,72,43a32.8,32.8,0,0,0-10.68,1.82V9H23.73V42L12.27,86.21V135H61.36V74.44a26,26,0,0,1,21.28,0V135h49.09V86.21Zm3.28,45.23v23.2H90.82V31.91h21.27V43.07ZM112.09,17.18v6.55H90.82V17.18Zm-58.91,0v6.55H31.91V17.18ZM31.91,43.07V31.91H53.18v80.18H20.45V87.25ZM20.45,126.82v-6.55H53.18v6.55ZM72.25,64a34.06,34.06,0,0,0-10.89,1.69v-12A23.12,23.12,0,0,1,72,51.2h0a23.14,23.14,0,0,1,10.61,2.49v12A33.85,33.85,0,0,0,72.25,64Zm18.57,62.84v-8.18h32.73v8.18Z"/></svg>