<svg id="Layer_1" data-name="Layer 1" xmlns="http://www.w3.org/2000/svg" viewBox="0 0 144 144"><title>broke</title><polygon points="9 99 54 108 18 81 9 99"/><polygon points="18 135 54 117 9 117 18 135"/><path d="M126.51,57.75l7.56-.66,1.41-.13-1.41-1.75L122,40.08,134.07,39V30l-18.88,1.66-9,.78-26.9,2.35-9,.79-9,.78-.79-9L134.07,21v-9L59.83,18.41a9,9,0,0,0-8.18,9.75l.78,9,.79,9A9,9,0,0,0,45,55.84l2.36,26.9,9-.79.79,9,.78,9,.79,9,.78,9,.39,4.48.4,4.48A9,9,0,0,0,70,135l9-.79a9,9,0,0,0,8.18-9.75l46.9-4.1v-9l-47.68,4.17-9,.79-9,.78-.79-9,9-.79-.79-9-9,.78-.79-9,68-6v-9l-68.75,6L62.18,45.31,77.12,44,90.65,60.89l9-.79L86.09,43.22,113,40.86Z"/><polygon points="85.6 106.5 134.07 102.26 134.07 93.22 84.82 97.53 85.6 106.5"/></svg>