<svg id="Layer_1" data-name="Layer 1" xmlns="http://www.w3.org/2000/svg" viewBox="0 0 117 117"><title>bus</title><rect x="40.5" y="74" width="36" height="5"/><path d="M100,29H97V25.71A5.71,5.71,0,0,0,91.29,20H25.71A5.71,5.71,0,0,0,20,25.71V29H17a6,6,0,0,0-6,6V44.5a5,5,0,0,0,5,5h0V35a1,1,0,0,1,1-1h3V91.29A5.71,5.71,0,0,0,25.71,97H37.29A5.71,5.71,0,0,0,43,91.29V88H74v3.29A5.71,5.71,0,0,0,79.71,97H91.29A5.71,5.71,0,0,0,97,91.29V34h3a1,1,0,0,1,1,1V49.5h0a5,5,0,0,0,5-5V35A6,6,0,0,0,100,29ZM25,63.08V35.92A1.92,1.92,0,0,1,26.92,34H90.08A1.92,1.92,0,0,1,92,35.92V63.08A1.92,1.92,0,0,1,90.08,65H26.92A1.92,1.92,0,0,1,25,63.08ZM25.71,25H91.29a.71.71,0,0,1,.71.71v3.57A6.75,6.75,0,0,0,90.08,29H26.92a6.75,6.75,0,0,0-1.92.28V25.71A.71.71,0,0,1,25.71,25ZM38,91.29a.71.71,0,0,1-.71.71H25.71a.71.71,0,0,1-.71-.71V88H38ZM38,83H25V79h6.5V74H25V70H92v4H85.5v5H92v4H38Zm54,8.29a.71.71,0,0,1-.71.71H79.71a.71.71,0,0,1-.71-.71V88H92Z"/></svg>