<svg id="Layer_1" data-name="Layer 1" xmlns="http://www.w3.org/2000/svg" viewBox="0 0 117 117"><defs><style>.cls-1{fill:none;}</style></defs><title>bus_alt</title><rect class="cls-1" x="25" y="34.25" width="67" height="31" rx="1.92"/><path d="M100,29.25H97V26a5.71,5.71,0,0,0-5.71-5.71H25.71A5.71,5.71,0,0,0,20,26v3.29H17a6,6,0,0,0-6,6v9.49a5,5,0,0,0,5,5h0V35.26a1,1,0,0,1,1-1h3V91.54a5.71,5.71,0,0,0,5.71,5.71h9.58A5.71,5.71,0,0,0,41,91.54V88.25H76v3.29a5.71,5.71,0,0,0,5.71,5.71h9.58A5.71,5.71,0,0,0,97,91.54V34.25h3a1,1,0,0,1,1,1V49.75h0a5,5,0,0,0,5-5V35.26A6,6,0,0,0,100,29.25ZM31.5,76.75H25v-5h6.5Zm45,0h-36v-5h36Zm15.5,0H85.5v-5H92Zm0-13.42a1.92,1.92,0,0,1-1.92,1.92H26.92A1.92,1.92,0,0,1,25,63.33V36.17a1.92,1.92,0,0,1,1.92-1.92H90.08A1.92,1.92,0,0,1,92,36.17Z"/></svg>