<svg id="Layer_1" data-name="Layer 1" xmlns="http://www.w3.org/2000/svg" viewBox="0 0 144 144"><title>bus_back</title><path d="M70.5,46.61v-9a4.33,4.33,0,0,0-4-4.31V18.84a4.34,4.34,0,0,0-4.34-4.34H60.8a4.32,4.32,0,0,0-3.64-2H29.84a4.32,4.32,0,0,0-3.64,2h-.36a4.34,4.34,0,0,0-4.34,4.34V33.25a4.33,4.33,0,0,0-4,4.31v9a4.31,4.31,0,0,0,4,4.3V87.63h-.16A4.34,4.34,0,0,0,17,92v9a4.34,4.34,0,0,0,4.34,4.35h.16v1.36a4.32,4.32,0,0,0-4,4.31v9a4.33,4.33,0,0,0,4,4.31v2.77a4.34,4.34,0,0,0,4.34,4.34H62.16a4.34,4.34,0,0,0,4.34-4.34v-2.77a4.33,4.33,0,0,0,4-4.31v-9a4.32,4.32,0,0,0-4-4.31v-1.45A4.35,4.35,0,0,0,70,101V92a4.35,4.35,0,0,0-3.5-4.26V50.91A4.31,4.31,0,0,0,70.5,46.61Z"/><polygon points="103.5 112.5 126 90 114.75 90 114.75 31.5 92.25 31.5 92.25 90 81 90 103.5 112.5"/></svg>