<svg id="Layer_1" data-name="Layer 1" xmlns="http://www.w3.org/2000/svg" viewBox="0 0 144 144"><title>calendar</title><path d="M121.5,27h-9V18h-9v9h-63V18h-9v9h-18v99h117V27Zm0,90h-99V54h99Zm0-72h-99V36h99Z"/><rect x="85.5" y="63" width="9" height="9"/><rect x="103.5" y="63" width="9" height="9"/><rect x="31.5" y="81" width="9" height="9"/><rect x="49.5" y="81" width="9" height="9"/><rect x="67.5" y="81" width="9" height="9"/><rect x="85.5" y="81" width="9" height="9"/><rect x="103.5" y="81" width="9" height="9"/><rect x="31.5" y="99" width="9" height="9"/><rect x="49.5" y="99" width="9" height="9"/><rect x="67.5" y="99" width="9" height="9"/><rect x="85.5" y="99" width="9" height="9"/><rect x="103.5" y="99" width="9" height="9"/></svg>