<svg id="Layer_1" data-name="Layer 1" xmlns="http://www.w3.org/2000/svg" viewBox="0 0 117 117"><title>call</title><path d="M81.39,96.75c-11.78,0-29.69-6.36-42.24-18.9C26.21,64.9,19.86,46.25,20.27,34.52c.18-5.25,1.7-9.25,4.37-11.57h0c4.6-4,12.45-3.13,17.51-.29,6.53,3.67,10.4,11.73,8.47,17.6-1.06,3.19-3.36,4.53-5,5.51-1.27.73-2,1.19-2.38,2-1.45,3.24,2.37,10.6,8.88,17.1S66,75.24,69.19,73.79c.85-.37,1.31-1.11,2-2.38,1-1.67,2.32-4,5.51-5,5.87-1.93,13.93,1.94,17.6,8.47,2.84,5.06,3.71,12.91-.29,17.51-2.32,2.67-6.32,4.19-11.57,4.37ZM32.81,25.24a7.47,7.47,0,0,0-4.89,1.48h0c-1.58,1.37-2.52,4.2-2.65,8-.37,10.39,5.61,27.8,17.42,39.61S71.93,92.11,82.3,91.73c3.78-.13,6.61-1.07,8-2.65,2.3-2.65,1.7-8.23-.29-11.78C87.54,73,81.87,70,78.31,71.13c-1.33.44-1.86,1.26-2.76,2.8a9.41,9.41,0,0,1-4.33,4.43c-6.5,2.9-16-3.22-22.67-9.91S35.74,52.28,38.64,45.78a9.41,9.41,0,0,1,4.43-4.33c1.54-.9,2.36-1.43,2.8-2.76C47,35.13,44,29.46,39.7,27A14.7,14.7,0,0,0,32.81,25.24Z"/></svg>