<svg id="Layer_1" data-name="Layer 1" xmlns="http://www.w3.org/2000/svg" viewBox="0 0 144 144"><title>call</title><path d="M109.67,135c-19.38,0-48.87-10.46-69.54-31.13C18.81,82.56,8.35,51.85,9,32.53c.31-8.65,2.79-15.24,7.2-19.06h0C23.81,6.89,36.74,8.31,45.06,13,55.81,19,62.2,32.31,59,42c-1.73,5.25-5.52,7.46-8.28,9.07-2.08,1.21-3.29,2-3.92,3.37-2.38,5.33,3.91,17.44,14.63,28.16s22.82,17,28.15,14.62c1.4-.62,2.16-1.83,3.37-3.92,1.61-2.76,3.82-6.55,9.07-8.28,9.67-3.19,23,3.19,29,13.94,4.68,8.32,6.1,21.25-.48,28.83-3.82,4.41-10.41,6.9-19.06,7.2C110.89,135,110.28,135,109.67,135Zm-80-117.75c-3.17,0-6.1.73-8.06,2.44h0c-2.6,2.25-4.15,6.92-4.37,13.13C16.66,49.93,26.51,78.61,46,98.05s48.15,29.31,65.23,28.69c6.21-.22,10.88-1.77,13.13-4.37,3.79-4.36,2.81-13.54-.48-19.39-4-7.16-13.36-12.1-19.23-10.17-2.18.73-3.06,2.08-4.53,4.61s-3.24,5.56-7.13,7.3C82.23,109.5,66.63,99.42,55.6,88.4S34.5,61.78,39.28,51.06c1.74-3.89,4.82-5.69,7.3-7.13s3.88-2.34,4.6-4.53c1.94-5.86-3-15.21-10.16-19.23A24.15,24.15,0,0,0,29.69,17.25Z"/></svg>