<svg id="Layer_1" data-name="Layer 1" xmlns="http://www.w3.org/2000/svg" viewBox="0 0 144 144"><title>car_crash</title><path d="M50.54,16.41c0-3.59-2.37-6.49-5.3-6.49L30.33,9l-14.91.92c-2.93,0-5.3,2.9-5.3,6.49q-.46,9-.75,18.28c-.71,23.81-.36,46.47.75,67.82,0,3.58,2.37,6.49,5.3,6.49H45.24c2.93,0,5.3-2.91,5.3-6.49,1.1-21.35,1.46-44,.75-67.82Q51,25.41,50.54,16.41Zm-20.21,21a147.88,147.88,0,0,1,16.46.92l-3,10.09a99.14,99.14,0,0,0-26.95,0l-3-10.09A149,149,0,0,1,30.33,37.44ZM13.86,92.49l3-6.1H43.8l3,6.1Z"/><path d="M134.09,112.19C125,92.84,114.62,72.7,102.76,52Q98.14,44,93.48,36.27c-1.69-3.17-5.15-4.61-7.73-3.23L72.17,39.26,59.45,47.1c-2.58,1.38-3.3,5.07-1.61,8.23q3.82,8.14,8,16.47C76.4,93.14,87.4,113,98.44,131.25c1.69,3.16,5.16,4.61,7.74,3.23l26.3-14.07C135.06,119,135.78,115.35,134.09,112.19ZM78.89,80.4l-7.4-7.48a147.58,147.58,0,0,1,29-15.53l2.12,10.31a99.09,99.09,0,0,0-12.31,5.54A101.23,101.23,0,0,0,78.89,80.4ZM97,120.65,94.9,110.34l23.76-12.71,7.4,7.49Z"/><polygon points="58.06 99.35 66.87 97.5 56.93 72 58.06 99.35"/><polygon points="58.21 9 56.8 36.34 67 10.94 58.21 9"/><polygon points="83.92 21.18 77.45 14.92 61.9 37.44 83.92 21.18"/></svg>