<svg id="Layer_1" data-name="Layer 1" xmlns="http://www.w3.org/2000/svg" viewBox="0 0 144 144"><title>clock</title><polygon points="76.5 43.41 67.5 43.41 67.5 81.27 86.82 100.59 93.18 94.23 76.5 77.55 76.5 43.41"/><path d="M72,25a54,54,0,1,0,54,54A54,54,0,0,0,72,25Zm0,99a45,45,0,1,1,45-45A45.05,45.05,0,0,1,72,124Z"/><rect x="54" y="11" width="36" height="9"/><rect x="112.95" y="24.55" width="9" height="18" transform="translate(10.68 92.88) rotate(-45)"/><rect x="17.45" y="29.05" width="18" height="9" transform="translate(-15.97 28.53) rotate(-45)"/></svg>