<svg id="Layer_1" data-name="Layer 1" xmlns="http://www.w3.org/2000/svg" viewBox="0 0 144 144"><title>departure_time</title><polygon points="135 72 93.8 44.53 93.8 58.07 79 58.07 79 85.93 93.8 85.93 93.8 99.47 135 72"/><rect x="44.76" y="21" width="18" height="9"/><polygon points="58.26 51 49.26 51 49.26 68.18 49.26 69.38 49.26 75.56 49.26 75.82 49.26 82.39 49.26 82.4 49.77 82.83 64.99 95.91 70.24 89.8 70.86 89.08 58.26 78.26 58.26 62.18 58.26 51"/><path d="M54,114a35.79,35.79,0,0,1-19.17-5.55h0a35.07,35.07,0,0,1-3.95-2.89l0,0c-.58-.48-1.13-1-1.67-1.5l-.22-.21a35.74,35.74,0,0,1-3-3.35l-.33-.42c-.39-.5-.76-1-1.12-1.53l-.22-.3c-.39-.58-.77-1.18-1.13-1.78-.13-.21-.25-.43-.37-.64-.24-.42-.47-.85-.69-1.28A36,36,0,0,1,76.56,50l7.79-5.19-.54-.5-.57-.49c-.41-.36-.84-.71-1.27-1.05l-.5-.4q-.72-.55-1.47-1.08L79.62,41c-.59-.41-1.18-.8-1.79-1.18l-.14-.09a45,45,0,0,0-58.36,9.52l0,0A45,45,0,0,0,14.22,99h0c.06.13.13.25.2.37l.06.11c.31.57.64,1.14,1,1.69l.1.19c.35.57.72,1.13,1.09,1.69l.17.25c.31.45.63.9,1,1.33l.32.43c.37.49.75,1,1.14,1.45l.3.36c.3.36.61.71.92,1.06l.52.57.83.87c.27.27.54.55.81.81l.85.81.72.65.64.55c.5.43,1,.85,1.54,1.26l.41.32c.31.24.63.47.95.7l.48.34c1.1.77,2.23,1.49,3.4,2.17l.27.15A45,45,0,0,0,91,103.63l-7.53-5A36,36,0,0,1,54,114Z"/></svg>