<svg id="Layer_1" data-name="Layer 1" xmlns="http://www.w3.org/2000/svg" viewBox="0 0 144 144"><title>deviation</title><rect x="58.07" y="53.14" width="9" height="7.55"/><rect x="58.07" y="83.32" width="9" height="7.55"/><rect x="58.07" y="68.23" width="9" height="7.55"/><path d="M94,62c-1.9-8.45-9.56-12.94-16.32-16.9-5.15-3-10-5.87-10.57-9.42v-.47a13.5,13.5,0,1,0-9,0,11.31,11.31,0,0,0,0,1.28c.9,8.12,8.39,12.51,15,16.38,5.68,3.33,11,6.47,12.09,11.11a43.14,43.14,0,0,1,0,16c-1,4.63-6.41,7.78-12.09,11.11C66.49,95,59,99.38,58.1,107.5a11.31,11.31,0,0,0,0,1.28,13.5,13.5,0,1,0,9,0v-.47c.56-3.55,5.43-6.4,10.58-9.42C84.4,94.92,92.06,90.43,94,82a51.92,51.92,0,0,0,0-20ZM62.57,18a4.5,4.5,0,0,1,0,9h0a4.5,4.5,0,1,1,0-9Zm0,108a4.5,4.5,0,1,1,0-9h0a4.5,4.5,0,0,1,0,9Z"/></svg>