<svg id="Layer_1" data-name="Layer 1" xmlns="http://www.w3.org/2000/svg" viewBox="0 0 144 144"><title>dog</title><polygon points="8.98 99 9 135 72 135 76.83 115.57 30.43 87.74 8.98 99"/><path d="M131.94,71.26,97.15,67.53a8.31,8.31,0,0,0-6.57-8.14L72.93,55.58,69.8,52.26A12.51,12.51,0,0,0,64.65,49L49.47,44,55.1,54.46a3.94,3.94,0,0,1,.27,3.1L52,67.86a6,6,0,0,1-.72,1.48l-4.16,6.25,34.95,21a6.75,6.75,0,0,1,6.11-3.45l30.16,1.09A9.16,9.16,0,0,0,127,88.91l6.74-14.52A2.21,2.21,0,0,0,131.94,71.26Z"/><path d="M38.72,83.32,35.57,85l42.58,25.55,2.38-9.07-36.62-22A23,23,0,0,1,38.72,83.32Z"/><path d="M33.91,32c.51,3.08-1.18,5.92-4,10.29C26.89,47,23.09,53,23.35,61c.22,6.89,3.33,13.57,9.23,19.93l3.78-2a17.71,17.71,0,0,0,4-2.9c-5.14-5.12-7.84-10.25-8-15.3-.16-5.24,2.43-9.3,5.18-13.61,3-4.67,6.36-10,5.27-16.59C41.28,21.4,26.05,14.72,9,9v9C22,22.37,33,26.69,33.91,32Z"/></svg>