<svg id="Layer_1" data-name="Layer 1" xmlns="http://www.w3.org/2000/svg" viewBox="0 0 144 144"><title>download_log</title><polygon points="9 9 9 18 9 99 9 108 18 108 36 108 36 99 18 99 18 18 126 18 126 99 108 99 108 108 126 108 135 108 135 99 135 18 135 9 9 9"/><polygon points="76.77 116.73 76.77 45 67.23 45 67.23 116.73 51.75 101.25 45 108 65.25 128.25 72 135 78.75 128.25 99 108 92.25 101.25 76.77 116.73"/><rect x="27" y="27" width="90" height="9"/><rect x="83.77" y="45" width="24.23" height="9"/><rect x="27" y="45" width="33.23" height="9"/><rect x="83.77" y="63" width="33.23" height="9"/><rect x="27" y="63" width="33.23" height="9"/><rect x="83.77" y="81" width="24.23" height="9"/><rect x="27" y="81" width="33.23" height="9"/></svg>