<svg id="Layer_1" data-name="Layer 1" xmlns="http://www.w3.org/2000/svg" viewBox="0 0 144 144"><title>download_mobile</title><path d="M60.23,76.44V62.69A38,38,0,0,0,45,72l9,9A25.39,25.39,0,0,1,60.23,76.44Z"/><path d="M83.77,62.7V76.45A25.43,25.43,0,0,1,90,81l9-9A38,38,0,0,0,83.77,62.7Z"/><path d="M60.23,36.47A63.38,63.38,0,0,0,27,54l9,9A50.67,50.67,0,0,1,60.23,49.5Z"/><path d="M83.77,49.5A50.6,50.6,0,0,1,108,63l9-9A63.49,63.49,0,0,0,83.77,36.47Z"/><path d="M72,9.91A88.81,88.81,0,0,0,9,36l9,9a76.48,76.48,0,0,1,108,0l9-9A88.84,88.84,0,0,0,72,9.91Z"/><polygon points="76.77 116.73 76.77 36 67.23 36 67.23 116.73 51.75 101.25 45 108 65.25 128.25 72 135 78.75 128.25 99 108 92.25 101.25 76.77 116.73"/></svg>