<svg id="Layer_1" data-name="Layer 1" xmlns="http://www.w3.org/2000/svg" viewBox="0 0 144 144"><title>expand</title><polygon points="45 18 45 9 18 9 9 9 9 18 9 45 18 45 18 24.36 47.64 54 54 47.64 24.36 18 45 18"/><polygon points="126 9 99 9 99 18 120.09 18 90.45 47.64 96.82 54 126 24.82 126 45 135 45 135 18 135 9 126 9"/><polygon points="126 119.64 96.36 90 90 96.36 119.64 126 99 126 99 135 126 135 135 135 135 126 135 99 126 99 126 119.64"/><polygon points="47.64 90 18 119.64 18 99 9 99 9 126 9 135 18 135 45 135 45 126 24.36 126 54 96.36 47.64 90"/></svg>