<svg id="Layer_1" data-name="Layer 1" xmlns="http://www.w3.org/2000/svg" viewBox="0 0 144 144"><title>garbage</title><path d="M132.45,11.55C130.59,9.7,127.91,9,125.06,9a26.35,26.35,0,0,0-10.61,2.55c-10.94,5.2-9.84,15.09-18,18a10.29,10.29,0,0,1-3.53.63c-7.37,0-13.65-7.89-23.47-9.63a23.1,23.1,0,0,0-3.93-.34c-7.17,0-16.79,3.32-29.44,15.06h0c-1.25,1.16-2.53,2.41-3.83,3.73h9.87V49.2A21.46,21.46,0,0,1,53.75,76.86l4.34,4.34,1.69,1.69.45.45,7.49-4.55,6.36-1.59L80,80.14,43.09,42.44c8.65-7.95,16.39-12.23,22.43-12.23a12.22,12.22,0,0,1,2.19.19c3,.54,6,2.28,9.12,4.12,4.51,2.65,9.61,5.66,16.09,5.66A20.39,20.39,0,0,0,99.8,39c7.25-2.58,10.49-8,12.86-11.88,2.07-3.42,3.19-5.13,6.08-6.5A16.49,16.49,0,0,1,125,19a16.62,16.62,0,0,1-1.6,6.26c-1.37,2.89-3.08,4-6.5,6.08C113,33.71,107.61,37,105,44.2c-3.42,9.59,1.13,17.32,4.45,23,1.84,3.12,3.58,6.08,4.12,9.12,1.15,6.55-3.29,15.31-12.66,25.3l-5.9-6,2.78,11.11-3.07,1.14,5.07,8.8c3.05-2.73,5.73-5.33,8.09-7.83l0,0h0c14.73-15.56,16.83-26.61,15.5-34.2-2-11.34-12.22-18-9-27,2.91-8.16,12.8-7.06,18-18C134.87,24.46,136.71,15.82,132.45,11.55Z"/><rect x="22.13" y="44" width="15" height="7.5"/><path d="M37.41,125a7.42,7.42,0,0,1-3.66,1H25.5a7.5,7.5,0,0,1-7.5-7.5V93.75a7.4,7.4,0,0,1,2.56-5.62,9,9,0,0,0,0-13.51A7.4,7.4,0,0,1,18,69a7.5,7.5,0,0,1,7.5-7.5h8.25a7.5,7.5,0,0,1,7.5,7.5,7.4,7.4,0,0,1-2.56,5.62,9,9,0,0,0,0,13.51.94.94,0,0,1,.1.1l1.27-2.52L47,84a16.26,16.26,0,0,0-2.38-2.59A16.49,16.49,0,0,0,33.75,52.5H25.5A16.49,16.49,0,0,0,14.61,81.38,16.45,16.45,0,0,0,9,93.75V118.5A16.5,16.5,0,0,0,25.5,135h8.25a16.45,16.45,0,0,0,8.07-2.11l-2.69-2.69Z"/><polygon points="80.3 110.42 72.7 104.76 80.22 107.88 91.89 103.54 88.5 90 73.5 82.5 69.67 83.46 54.5 92.67 48.59 106.35 53.43 87.52 43.5 90 36 105 43.5 127.5 51 135 58.5 135 66 135 62.2 127.39 53.65 123.95 64.38 123.92 69.93 133.81 81 135 96 120 89.08 107.98 80.3 110.42"/></svg>