<svg id="Layer_1" data-name="Layer 1" xmlns="http://www.w3.org/2000/svg" viewBox="0 0 144 144"><title>help</title><path d="M72,9A63,63,0,0,0,9,72H9a63,63,0,0,0,126,0h0A63,63,0,0,0,72,9Zm0,117a54,54,0,1,1,54-54A54.06,54.06,0,0,1,72,126Z"/><path d="M70.88,91.1c-4.2,0-7.44,3.32-7.44,7.84a7.45,7.45,0,1,0,14.88,0C78.32,94.42,75.08,91.1,70.88,91.1Z"/><path d="M72.12,37.3C64.6,37.3,58.46,40.94,54,46l6.44,5.88c2.92-3.12,6.24-5.16,10.28-5.16,5.16,0,8.16,3.24,8.16,8,0,9-15.24,14.72-13.16,29.32H75.84C74.44,71.1,90,66.58,90,53.86,90,43,82.56,37.3,72.12,37.3Z"/></svg>