<svg id="Layer_1" data-name="Layer 1" xmlns="http://www.w3.org/2000/svg" viewBox="0 0 144 144"><title>map</title><path d="M9.1,9,9,135l126.16,0L135,9.05Zm81.76,9.7a30.73,30.73,0,0,1-4.5,16.62c-7,11-23.91,17.23-39.09,8.17-8.35-5-13.92-14.21-15.41-24.81Zm-72.77,0h4.67C24.34,32.8,31.69,45.27,42.9,52a38.57,38.57,0,0,0,19.78,5.45,36.62,36.62,0,0,0,31.1-16.62,40.93,40.93,0,0,0,6-22.08h20.06a61.27,61.27,0,0,1-6.65,16.77c-5,8.59-14.92,20.26-33.59,27-10.36,3.76-18.31,3.67-26,3.59-9.31-.1-18.11-.2-28.85,6.5a51,51,0,0,0-6.75,5.06Zm0,72.45A45.39,45.39,0,0,1,29.33,81c8.6-5.36,15.51-5.28,24.25-5.19,8,.09,17.14.19,29-4.1,21.18-7.69,32.53-21.13,38.33-31a70.38,70.38,0,0,0,5.17-11l0,30c-5.62,8.4-12.26,14.54-19.85,18.3-8.34,4.13-15.62,4.29-22.67,4.46-7.46.17-15.19.35-22.85,5.53C50,95.21,43.49,104,41.27,125.3H18Zm58.68,34.16c.87-7,2.82-13.07,6.45-15.11,5.7-3.18,17.67,1.7,29.69,15.1Zm49.42,0h-1.27A85,85,0,0,0,106.7,107C96.19,99.6,86.11,97.61,79,101.58c-6.25,3.49-10.07,11.48-11.37,23.71H50.35c2-17.55,7-23.62,15.14-29.12,5.56-3.76,11.16-3.89,18.26-4.05C91.34,92,100,91.75,110,86.78a56,56,0,0,0,16.1-12.17Z"/></svg>