<svg id="Layer_1" data-name="Layer 1" xmlns="http://www.w3.org/2000/svg" viewBox="0 0 144 144"><title>map_route</title><path d="M39.73,59.27a18,18,0,1,0-25.46,0L27,72ZM20.64,40.18A9,9,0,1,1,33.36,52.91L27,59.27l-6.36-6.36A9,9,0,0,1,20.64,40.18Z"/><path d="M104.27,78.82a18,18,0,0,0,0,25.45L117,117l12.73-12.73a18,18,0,1,0-25.46-25.45ZM126,91.54a9,9,0,0,1-2.64,6.37L117,104.27l-6.36-6.36A9,9,0,1,1,126,91.54Z"/><path d="M64.22,9H9V26.42a26.83,26.83,0,0,1,9-5.32V18H55.83L49.22,31.22a26.83,26.83,0,0,1,4.65,12.86L63,48.63l-8.05,16.1-5.72-2.86a26.42,26.42,0,0,1-3.13,3.77l-3.16,3.15L66.38,80.52l-8.22,16L29.52,82.21l-10-5L9,66.73V135H135V111.73l-9,9V126h-8.9l-7.65-3.83L66.21,100.58l8.25-16L90,92.34A27.21,27.21,0,0,1,91.41,83L63,68.76,71,52.66l31.79,15.9a26.72,26.72,0,0,1,12.25-3.94L104.4,59.28l8-16.11L126,50V66.08h0a26.86,26.86,0,0,1,9,5.33V9Zm9.64,105.44L97,126H68.08ZM18,126v-9.3L36.6,126Zm40,0H56.72L18,106.64V86.51l47.81,23.91ZM96.35,55.25,57.09,35.62l8-16.1,39.24,19.62ZM126,39.89,82.22,18H126Z"/></svg>