<svg id="Layer_1" data-name="Layer 1" xmlns="http://www.w3.org/2000/svg" viewBox="0 0 144 144"><title>narrow</title><path d="M72,17.44,9,126.56H135ZM72,33.3l48.65,84.26H23.35Z"/><path d="M60.33,79.63a6.43,6.43,0,0,1-.67,2.86L53.5,94.81a13.26,13.26,0,0,0-1.4,5.93v10H59v-10a6.34,6.34,0,0,1,.68-2.86L65.8,85.56a13.39,13.39,0,0,0,1.4-5.93v-10H60.33Z"/><path d="M90.5,94.81,84.34,82.49a6.43,6.43,0,0,1-.67-2.86v-10H76.8v10a13.39,13.39,0,0,0,1.4,5.93l6.16,12.32a6.34,6.34,0,0,1,.68,2.86v10H91.9v-10A13.26,13.26,0,0,0,90.5,94.81Z"/></svg>