<svg id="Layer_1" data-name="Layer 1" xmlns="http://www.w3.org/2000/svg" viewBox="0 0 144 144"><title>people</title><path d="M116.18,37.64H98.86a16.22,16.22,0,0,1,1,5.72V73.65A12.39,12.39,0,0,1,94.36,84v35.59a6.41,6.41,0,0,0,6.41,6.41H112a6.41,6.41,0,0,0,6.41-6.41V81.82l4.7-3A6.42,6.42,0,0,0,126,73.41v-26A9.82,9.82,0,0,0,116.18,37.64Z"/><circle cx="106.36" cy="27.82" r="9.82" transform="translate(-2.55 42.82) rotate(-22.5)"/><path d="M44.09,73.65V43.36a16.22,16.22,0,0,1,1-5.72H27.82A9.82,9.82,0,0,0,18,47.45v26a6.42,6.42,0,0,0,2.94,5.39l4.7,3v37.77A6.41,6.41,0,0,0,32.05,126H43.23a6.41,6.41,0,0,0,6.41-6.41V84A12.39,12.39,0,0,1,44.09,73.65Z"/><circle cx="37.64" cy="27.82" r="9.82" transform="translate(-6.45 12.1) rotate(-16.84)"/><path d="M94.91,43.36A11.46,11.46,0,0,0,83.45,31.91H60.55A11.46,11.46,0,0,0,49.09,43.36V73.65a7.46,7.46,0,0,0,3.43,6.28L58,83.45v44.07A7.48,7.48,0,0,0,65.48,135h13A7.48,7.48,0,0,0,86,127.52V83.45l5.48-3.52a7.46,7.46,0,0,0,3.43-6.28Z"/><circle cx="72" cy="20.45" r="11.45"/></svg>