<svg id="Layer_1" data-name="Layer 1" xmlns="http://www.w3.org/2000/svg" viewBox="0 0 117 117"><title>pin</title><path d="M58.5,20A31.33,31.33,0,0,0,27.2,51.3c0,22.59,28.58,44.29,29.8,45.2l1.5,1.13L60,96.5c1.22-.91,29.8-22.61,29.8-45.2A31.33,31.33,0,0,0,58.5,20Zm0,71.31c-5.79-4.72-26.3-22.67-26.3-40a26.3,26.3,0,0,1,52.6,0C84.8,68.64,64.29,86.59,58.5,91.31Z"/><path d="M58.5,34.4A16.9,16.9,0,1,0,75.4,51.3,16.92,16.92,0,0,0,58.5,34.4Zm0,28.8A11.9,11.9,0,1,1,70.4,51.3,11.92,11.92,0,0,1,58.5,63.2Z"/></svg>