<svg id="Layer_1" data-name="Layer 1" xmlns="http://www.w3.org/2000/svg" viewBox="0 0 117 117"><title>radar</title><path d="M93.39,42.19a38.91,38.91,0,0,0-2.77-4.92L86.45,40a35.19,35.19,0,0,1,2.41,4.28,33.65,33.65,0,0,1,.69,26.8,33.51,33.51,0,1,1-9.19-38l-6.68,6.67a22.45,22.45,0,0,0-1.85-1.35,3.53,3.53,0,0,0-.32-.21c-.55-.35-1.1-.67-1.66-1l-.39-.19c-.56-.29-1.14-.56-1.73-.8l-.33-.14q-.93-.36-1.89-.66l-.24-.07c-.69-.2-1.4-.38-2.12-.52h-.06a24.13,24.13,0,0,0-4.59-.45,23.87,23.87,0,0,0-15.21,5.41h0a20.34,20.34,0,0,0-1.83,1.65c-.57.57-1.11,1.16-1.61,1.77a24.12,24.12,0,0,0,0,30.54c.5.61,1,1.2,1.61,1.77a20.34,20.34,0,0,0,1.83,1.65h0a24.09,24.09,0,0,0,30.42,0h0a20.34,20.34,0,0,0,1.83-1.65,24.07,24.07,0,0,0,7.06-17,24.27,24.27,0,0,0-2.25-10.19l-.1-.19h0l0-.07L78,49.19l-2.26,1.08.08.14A19.25,19.25,0,0,1,77.6,58.5,19.08,19.08,0,0,1,72,72c-.47.46-1,.89-1.44,1.3l-.21.15c-.44.35-.88.68-1.35,1h0a19.15,19.15,0,0,1-21,0h0c-.47-.31-.91-.64-1.35-1l-.21-.15c-.49-.41-1-.84-1.44-1.3a19.12,19.12,0,0,1,0-27c.44-.43.9-.84,1.37-1.23.22-.19.46-.35.69-.52l.74-.56c.31-.21.63-.39,1-.58l.55-.33c.37-.2.74-.38,1.11-.55l.46-.22c.39-.17.79-.32,1.19-.46l.44-.16c.4-.13.81-.25,1.22-.35.15,0,.31-.09.47-.12.4-.09.8-.17,1.21-.24l.54-.08q.59-.08,1.17-.12l.62,0c.38,0,.77,0,1.15,0,.19,0,.37,0,.56,0,.41,0,.82,0,1.24.08l.18,0a19.11,19.11,0,0,1,6,1.77l.41.19c.33.17.65.36,1,.55s.41.24.62.38.53.36.79.55l.48.35L63.36,50.1,63.23,50l-.32-.16-.43-.21-.42-.18-.35-.12-.5-.17-.2,0a9.38,9.38,0,0,0-2-.32h-.84l-.23,0c-.21,0-.42,0-.63.05h-.08a8.63,8.63,0,0,0-1.36.28l-.12,0-.49.17-.35.13-.41.17a4.25,4.25,0,0,0-.43.21l-.32.17c-.17.09-.33.2-.5.3L53,50.5l-.57.43-.13.1c-.23.19-.45.4-.67.61a9.74,9.74,0,0,0-2,3l0,.09c-.09.22-.17.44-.25.67s-.06.16-.08.24-.09.33-.13.5-.08.29-.11.44,0,.16,0,.24a9.48,9.48,0,0,0,0,3.36c0,.08,0,.16,0,.24s.07.3.11.44.08.34.13.5a2.34,2.34,0,0,0,.09.24c.07.23.15.45.24.67l0,.09a9.74,9.74,0,0,0,2,3l.26.23c.15.14.29.28.45.41s.25.19.38.28.25.2.39.29l.36.22.46.27.29.14.59.28.16,0a9.58,9.58,0,0,0,7,0l.16,0,.59-.28.29-.14.46-.27.36-.22c.14-.09.26-.19.39-.29s.26-.18.38-.28.3-.27.45-.41l.26-.23h0a9.68,9.68,0,0,0,1.53-11.71l6.88-6.89h0L87.49,33l3.32-3.32-3.53-3.53-3.39,3.38a38.48,38.48,0,1,0,1.83,56.15A38.35,38.35,0,0,0,97,58.5,38.84,38.84,0,0,0,93.39,42.19Z"/></svg>