<svg id="Layer_1" data-name="Layer 1" xmlns="http://www.w3.org/2000/svg" viewBox="0 0 144 144"><title>radar</title><path d="M129.1,45.29a63.29,63.29,0,0,0-4.53-8l-6.83,4.52a54.39,54.39,0,0,1,4,7A55.33,55.33,0,0,1,126.83,72a54.85,54.85,0,1,1-19.06-41.57L96.84,41.35a36.17,36.17,0,0,0-3-2.22c-.17-.12-.35-.22-.53-.33-.89-.57-1.79-1.11-2.72-1.61l-.63-.31C89,36.4,88.06,36,87.1,35.56l-.54-.22c-1-.4-2.06-.76-3.11-1.08l-.37-.12c-1.15-.33-2.3-.61-3.48-.84l-.1,0A39.92,39.92,0,0,0,72,32.54a39.17,39.17,0,0,0-24.91,8.85h0a40.31,40.31,0,0,0-3,2.71c-.93.93-1.81,1.9-2.63,2.9a39.48,39.48,0,0,0,0,50c.82,1,1.7,2,2.63,2.91s2,1.85,3,2.7h0a39.47,39.47,0,0,0,49.81,0h0q1.56-1.27,3-2.7A39.41,39.41,0,0,0,111.44,72a39.79,39.79,0,0,0-3.68-16.68l-.17-.33h0l0-.1-3.64,1.87-3.7,1.76a1.88,1.88,0,0,0,.12.23A31.23,31.23,0,0,1,94.1,94.11c-.76.76-1.55,1.46-2.36,2.13l-.33.24c-.72.58-1.45,1.13-2.21,1.63h0a31.38,31.38,0,0,1-34.39,0h0c-.75-.5-1.49-1-2.21-1.63l-.33-.24c-.81-.67-1.6-1.37-2.36-2.13a31.28,31.28,0,0,1,0-44.23c.72-.71,1.46-1.38,2.23-2,.37-.3.76-.57,1.14-.85s.8-.62,1.21-.91,1-.65,1.56-1l.9-.54c.6-.33,1.21-.62,1.82-.9.25-.12.49-.25.75-.36.64-.28,1.29-.52,2-.76l.71-.25c.66-.22,1.33-.41,2-.58l.77-.19q1-.23,2-.39l.89-.13c.64-.09,1.28-.16,1.92-.2.33,0,.67,0,1-.05.63,0,1.26,0,1.89,0l.92,0c.67,0,1.35.06,2,.14l.3,0a31.46,31.46,0,0,1,9.81,2.9l.67.32c.54.28,1.06.59,1.58.9.34.2.69.4,1,.61s.87.6,1.29.9l.79.59-11,11-.21-.11-.53-.28-.71-.34-.68-.29L77.25,57c-.27-.09-.55-.19-.83-.27l-.32-.08a15.58,15.58,0,0,0-3.29-.52l-.36,0-.46,0-.54,0-.39,0c-.34,0-.69,0-1,.08l-.13,0a16.46,16.46,0,0,0-2.24.46l-.18.05c-.28.08-.54.18-.81.27l-.58.21-.66.29c-.24.1-.47.22-.71.34l-.52.28c-.28.15-.55.32-.82.49l-.39.26c-.32.22-.63.45-.94.7l-.21.16a14.49,14.49,0,0,0-1.09,1,15.82,15.82,0,0,0-3.35,4.91,1,1,0,0,1-.07.15c-.14.36-.27.72-.39,1.09-.05.13-.1.26-.14.39a7.58,7.58,0,0,0-.21.82c-.07.24-.14.48-.19.72s0,.26-.06.39a15.31,15.31,0,0,0,0,5.51c0,.13,0,.26.06.39s.12.48.19.73a8,8,0,0,0,.21.81c0,.14.09.26.14.4.12.36.25.73.39,1.08a.8.8,0,0,1,.08.16,15.85,15.85,0,0,0,3.34,4.91c.13.13.28.25.42.38s.48.45.73.66.42.32.63.47.41.32.63.46l.6.37c.25.15.5.31.76.44a4.09,4.09,0,0,0,.47.23c.32.16.64.31,1,.45l.26.1a15.74,15.74,0,0,0,11.51,0l.26-.1c.33-.14.65-.29,1-.45a4.09,4.09,0,0,0,.47-.23c.26-.13.51-.29.76-.44l.6-.37c.22-.14.42-.3.63-.46s.42-.3.63-.47.49-.44.73-.66.29-.25.42-.38h0a15.81,15.81,0,0,0,2.51-19.17L97,52.78h0l22.46-22.46,5.44-5.44-5.79-5.79-5.54,5.55A62.77,62.77,0,1,0,129.1,45.29Z"/></svg>