<svg id="Layer_1" data-name="Layer 1" xmlns="http://www.w3.org/2000/svg" viewBox="0 0 144 144"><title>reduce</title><polygon points="27 54 27 63 54 63 63 63 63 54 63 27 54 27 54 47.64 24.36 18 18 24.36 47.64 54 27 54"/><polygon points="90.45 63 117.45 63 117.45 54 96.36 54 126 24.36 119.64 18 90.45 47.18 90.45 27 81.45 27 81.45 54 81.45 63 90.45 63"/><polygon points="90 96.36 119.64 126 126 119.64 96.36 90 117 90 117 81 90 81 81 81 81 90 81 117 90 117 90 96.36"/><polygon points="24.36 126 54 96.36 54 117 63 117 63 90 63 81 54 81 27 81 27 90 47.64 90 18 119.64 24.36 126"/></svg>