<svg id="Layer_1" data-name="Layer 1" xmlns="http://www.w3.org/2000/svg" viewBox="0 0 117 117"><title>report</title><path d="M58.5,18.5a40.13,40.13,0,0,1,8.48.91l2.73-9.63A49.87,49.87,0,0,0,25,21.44l7.09,7.08A39.81,39.81,0,0,1,58.5,18.5Z"/><path d="M98.5,58.5a39.84,39.84,0,0,1-1.34,10.25l9.5,3.17A50,50,0,0,0,74.52,11.15l-2.73,9.63A40.06,40.06,0,0,1,98.5,58.5Z"/><path d="M58.5,98.5a40,40,0,0,1-30-66.44L21.44,25a50,50,0,1,0,83.63,51.69l-9.5-3.17A40,40,0,0,1,58.5,98.5Z"/><rect x="71.5" y="45" width="10" height="31.5"/><rect x="53.54" y="38.16" width="10" height="38.34"/><rect x="35.46" y="51.85" width="10" height="24.65"/></svg>