<svg id="Layer_1" data-name="Layer 1" xmlns="http://www.w3.org/2000/svg" viewBox="0 0 144 144"><title>road_off</title><path d="M63,54A18,18,0,1,0,45,72,18,18,0,0,0,63,54ZM36,54a9,9,0,1,1,9,9A9,9,0,0,1,36,54Z"/><path d="M99,20.64,77.82,41.82l6.36,6.36L94.5,37.86V45A38.7,38.7,0,0,1,83.09,72.55L54.55,101.09A47.45,47.45,0,0,0,48.82,108H40.5v9H44a47.44,47.44,0,0,0-2.64,9H40.5v9h9a38.7,38.7,0,0,1,11.41-27.55L89.45,78.91A47.64,47.64,0,0,0,103.5,45V37.86l10.32,10.32,6.36-6.36Z"/><polygon points="40.5 81 49.5 81 49.5 72 45 72 40.5 72 40.5 81"/><rect x="40.5" y="90" width="9" height="9"/><rect x="40.5" y="9" width="9" height="9"/><polygon points="49.5 27 40.5 27 40.5 36 45 36 49.5 36 49.5 27"/></svg>