<svg id="Layer_1" data-name="Layer 1" xmlns="http://www.w3.org/2000/svg" viewBox="0 0 144 144"><title>road_in</title><path d="M126,54a18,18,0,1,0-18,18A18,18,0,0,0,126,54Zm-18,9a9,9,0,1,1,9-9A9,9,0,0,1,108,63Z"/><path d="M59.82,39.18,70.14,49.5H54A31.53,31.53,0,0,0,22.5,81v54h9V81A22.52,22.52,0,0,1,54,58.5H70.14L59.82,68.82l6.36,6.36L87.36,54,66.18,32.82Z"/><rect x="103.5" y="126" width="9" height="9"/><rect x="103.5" y="108" width="9" height="9"/><polygon points="103.5 81 112.5 81 112.5 72 108 72 103.5 72 103.5 81"/><rect x="103.5" y="90" width="9" height="9"/><rect x="103.5" y="9" width="9" height="9"/><polygon points="112.5 27 103.5 27 103.5 36 108 36 112.5 36 112.5 27"/></svg>