<svg id="Layer_1" data-name="Layer 1" xmlns="http://www.w3.org/2000/svg" viewBox="0 0 144 144"><title>satellite</title><path d="M102.5,58.5h10a27,27,0,0,0-27-27v10A17,17,0,0,1,102.5,58.5Z"/><path d="M120.5,58.5h10a45,45,0,0,0-45-45v10A35,35,0,0,1,120.5,58.5Z"/><path d="M123.58,96.79,91.75,65A9,9,0,1,0,79,52.25L47.21,20.42A54.33,54.33,0,0,0,37.26,83L13.5,130.5h72l-6.11-18.34a54.71,54.71,0,0,0,6,.34A53.85,53.85,0,0,0,123.58,96.79ZM29.68,120.5,43.56,92.74A53.2,53.2,0,0,0,68,109.66l3.62,10.84Zm43.07-19.81A43.46,43.46,0,0,1,48.43,82.45,44.53,44.53,0,0,1,48,35.38L72.87,60.22,108.62,96a43.93,43.93,0,0,1-23.23,6.53A44.76,44.76,0,0,1,72.75,100.69Z"/></svg>