<svg id="Layer_1" data-name="Layer 1" xmlns="http://www.w3.org/2000/svg" viewBox="0 0 144 144"><title>settings</title><path d="M53.22,27a13.49,13.49,0,0,0-25.44,0H9v9H27.78a13.49,13.49,0,0,0,25.44,0H135V27ZM40.5,35A3.5,3.5,0,1,1,44,31.5,3.5,3.5,0,0,1,40.5,35Z"/><path d="M103.5,58.5a13.5,13.5,0,0,0-12.72,9H9v9H90.78a13.49,13.49,0,0,0,25.44,0H135v-9H116.22A13.5,13.5,0,0,0,103.5,58.5Zm0,17A3.5,3.5,0,1,1,107,72,3.5,3.5,0,0,1,103.5,75.5Z"/><path d="M67.5,99a13.5,13.5,0,0,0-12.72,9H9v9H54.78a13.49,13.49,0,0,0,25.44,0H135v-9H80.22A13.5,13.5,0,0,0,67.5,99Zm0,17a3.5,3.5,0,1,1,3.5-3.5A3.5,3.5,0,0,1,67.5,116Z"/></svg>