<svg id="Layer_1" data-name="Layer 1" xmlns="http://www.w3.org/2000/svg" viewBox="0 0 144 144"><title>shift_failed</title><polygon points="108 99 90 81 90 90 63 90 63 108 90 108 90 117 108 99"/><path d="M45,55.93V49.5a9,9,0,0,0-9-9H18a9,9,0,0,0-9,9V73.29a5.87,5.87,0,0,0,2.7,4.94L16,81v34.62a5.88,5.88,0,0,0,5.88,5.88H32.12A5.88,5.88,0,0,0,38,115.62V81.07L28.93,72Z"/><circle cx="27" cy="31.5" r="9"/><path d="M126,40.5H108a9,9,0,0,0-9,9V73.29a5.87,5.87,0,0,0,2.7,4.94L106,81v8.93L115.07,99,106,108.07v7.55a5.88,5.88,0,0,0,5.88,5.88h10.24a5.88,5.88,0,0,0,5.88-5.88V81l4.3-2.77a5.87,5.87,0,0,0,2.7-4.94V49.5A9,9,0,0,0,126,40.5Z"/><circle cx="117" cy="31.5" r="9"/><polygon points="81 63 54 63 54 54 36 72 54 90 54 81 81 81 81 63"/><polygon points="62.45 49.82 72 40.27 81.55 49.82 87.91 43.46 78.36 33.91 87.91 24.36 81.55 18 72 27.55 62.45 18 56.09 24.36 65.64 33.91 56.09 43.46 62.45 49.82"/></svg>