<svg id="Layer_1" data-name="Layer 1" xmlns="http://www.w3.org/2000/svg" viewBox="0 0 144 144"><title>sort_asc</title><path d="M34.64,9,16.93,67.18H32.67l2.89-12.35H51.78l2.89,12.35H71L53.24,9Zm3.71,33.9.94-4c1.43-5.54,2.86-12.52,4.12-18.42h.35c1.43,5.81,2.86,12.88,4.3,18.42l.94,4Z"/><polygon points="65.23 86.17 65.23 76.86 24.8 76.86 24.8 89.74 46.27 89.74 22.48 125.7 22.48 135 65.41 135 65.41 122.12 41.44 122.12 65.23 86.17"/><polygon points="128.64 103.18 114.04 117.77 114.04 9 105.04 9 105.04 117.77 90.45 103.18 84.09 109.54 103.18 128.64 109.54 135 115.91 128.64 135 109.54 128.64 103.18"/></svg>