<svg id="Layer_1" data-name="Layer 1" xmlns="http://www.w3.org/2000/svg" viewBox="0 0 144 144"><title>sort_desc</title><path d="M34.64,76.86,16.93,135H32.67l2.89-12.34H51.78L54.67,135H71L53.24,76.86Zm3.71,33.9.94-4c1.43-5.55,2.86-12.52,4.12-18.43h.35c1.43,5.82,2.86,12.88,4.3,18.43l.94,4Z"/><polygon points="65.41 54.26 41.44 54.26 65.23 18.3 65.23 9 24.8 9 24.8 21.88 46.27 21.88 22.48 57.83 22.48 67.14 65.41 67.14 65.41 54.26"/><polygon points="128.64 103.18 114.04 117.77 114.04 9 105.04 9 105.04 117.77 90.45 103.18 84.09 109.54 103.18 128.64 109.54 135 115.91 128.64 135 109.54 128.64 103.18"/></svg>