<svg id="Layer_1" data-name="Layer 1" xmlns="http://www.w3.org/2000/svg" viewBox="0 0 144 144"><title>text</title><path d="M27.27,42.17,9,100.75H23.31l3.42-13.5H44.1l3.42,13.5H62.28L44,42.17Zm2.16,34.28,1.26-5c1.53-5.75,3.06-12.68,4.5-18.8h.36c1.53,6.12,3.06,13,4.59,18.8l1.26,5Z"/><path d="M87.12,55A36.39,36.39,0,0,0,67.86,60.8l4.86,9c4.5-2.51,8.1-3.78,11.7-3.78,4.59,0,6.48,2.17,6.84,5.85-17.64,1.8-24.93,6.93-24.93,16.38,0,7.47,5.13,13.59,13.32,13.59,5,0,9.09-2.25,12.78-5.58h.36l1,4.5h11.34V75.37C105.12,61.34,98.64,55,87.12,55Zm4.14,32.57C89.1,89.68,87.21,91,84.42,91c-3.06,0-4.77-1.26-4.77-3.87,0-3.15,2.7-5.58,11.61-6.75Z"/><polygon points="135 27 135 18 108 18 108 27 117 27 117 117 108 117 108 126 135 126 135 117 126 117 126 27 135 27"/></svg>