<svg id="Layer_1" data-name="Layer 1" xmlns="http://www.w3.org/2000/svg" viewBox="0 0 144 144"><title>thetis_logo</title><path d="M49.74,132.18a57.75,57.75,0,0,1-28.89-20.94A61.49,61.49,0,0,1,9,76.45,64.77,64.77,0,0,1,9.5,67a65.47,65.47,0,0,1,1.92-9.27,67.51,67.51,0,0,1,3.29-8.91,68.91,68.91,0,0,1,4.59-8.33,64.49,64.49,0,0,1,5.82-7.57A62.7,62.7,0,0,1,39.84,20.83a71.87,71.87,0,0,1,8.55-4.29,71.42,71.42,0,0,1,9.1-2.93A68.6,68.6,0,0,1,66.93,12a67.79,67.79,0,0,1,9.56-.1,62.66,62.66,0,0,1,9.45,1.32A68.35,68.35,0,0,1,95.06,16a66,66,0,0,1,8.59,4,67.05,67.05,0,0,1,7.87,5.27,66.69,66.69,0,0,1,6.94,6.39A61.48,61.48,0,0,1,134.4,64.83a57.76,57.76,0,0,1-6,35.18,72.75,72.75,0,0,0,2.09-8.57,67.12,67.12,0,0,0,.92-8.67,63.32,63.32,0,0,0-.31-8.61,62.44,62.44,0,0,0-1.49-8.41A58.43,58.43,0,0,0,99.53,27.67,67.61,67.61,0,0,0,92,24.48a60,60,0,0,0-7.9-2.08,61.24,61.24,0,0,0-8.1-.93,58.09,58.09,0,0,0-8.13.25,58.71,58.71,0,0,0-8,1.39,58.08,58.08,0,0,0-15,6.13,62.61,62.61,0,0,0-6.69,4.62,57.75,57.75,0,0,0-6,5.51A62.5,62.5,0,0,0,27,45.71a60.5,60.5,0,0,0-4.19,7,68,68,0,0,0-3.16,7.58,63.65,63.65,0,0,0-2.05,8,58.54,58.54,0,0,0,7.24,40.32,61.85,61.85,0,0,0,4.82,7A65.85,65.85,0,0,0,35.51,122a66.62,66.62,0,0,0,6.73,5.53A70.67,70.67,0,0,0,49.74,132.18Z"/><path d="M91.26,33.23a44.91,44.91,0,0,1,23.11,16.15A48.47,48.47,0,0,1,124.05,77a51.3,51.3,0,0,1-.33,7.53,52.13,52.13,0,0,1-1.49,7.42,54.69,54.69,0,0,1-2.59,7.13,55.65,55.65,0,0,1-3.66,6.69,49.47,49.47,0,0,1-4.64,6.07,54.18,54.18,0,0,1-5.51,5.31,53.44,53.44,0,0,1-6.26,4.41A56.94,56.94,0,0,1,92.72,125a55.22,55.22,0,0,1-7.29,2.34,49.57,49.57,0,0,1-15.22,1.32,50.42,50.42,0,0,1-7.56-1.08,55.83,55.83,0,0,1-7.3-2.21,50.65,50.65,0,0,1-13.11-7.52,52.71,52.71,0,0,1-5.51-5.15A48.48,48.48,0,0,1,24.3,86.2a44.91,44.91,0,0,1,5.19-27.72A58.17,58.17,0,0,0,28,65.25,52,52,0,0,0,27.42,72a49.85,49.85,0,0,0,.36,6.71,48.78,48.78,0,0,0,1.27,6.52,46.14,46.14,0,0,0,13.18,22,45.65,45.65,0,0,0,10.39,7.2,53.77,53.77,0,0,0,5.83,2.41,44,44,0,0,0,6.07,1.56,48,48,0,0,0,6.2.7,44.64,44.64,0,0,0,6.23-.22,45.16,45.16,0,0,0,6.13-1.07A47.12,47.12,0,0,0,89,115.87a46.57,46.57,0,0,0,5.58-2.75,47.5,47.5,0,0,0,5.13-3.52,43.74,43.74,0,0,0,4.6-4.22,48.46,48.46,0,0,0,4-4.84,47,47,0,0,0,3.24-5.37,52,52,0,0,0,2.46-5.8A45.46,45.46,0,0,0,116.34,77a46.2,46.2,0,0,0-6-24.92,49.55,49.55,0,0,0-3.66-5.54,50.3,50.3,0,0,0-4.45-5A52.52,52.52,0,0,0,97.07,37,59.09,59.09,0,0,0,91.26,33.23Z"/></svg>