<svg id="Layer_1" data-name="Layer 1" xmlns="http://www.w3.org/2000/svg" viewBox="0 0 144 144"><title>Touch</title><path d="M100.41,130.5h-45a4.49,4.49,0,0,1-4.27-3.09L45.8,111.27a88.71,88.71,0,0,0-11.35-22.7l-8.6-12.36A10.84,10.84,0,0,1,23.91,70v-.65a10.87,10.87,0,0,1,18.55-7.68l8.45,8.46V27a13.5,13.5,0,0,1,27,0V51.22L111.27,67.9a14.32,14.32,0,0,1,8.54,16,5.25,5.25,0,0,1-.16.6l-15,43A4.5,4.5,0,0,1,100.41,130.5Zm-41.75-9H97.21L111,81.91a5.33,5.33,0,0,0-3.29-5.73L107.4,76l-36-18a4.49,4.49,0,0,1-2.49-4V27a4.5,4.5,0,0,0-9,0V81a4.5,4.5,0,0,1-7.68,3.18L36.09,68.05a1.82,1.82,0,0,0-1.32-.55,1.87,1.87,0,0,0-1.86,1.86V70a1.9,1.9,0,0,0,.33,1.06l8.6,12.37a97.14,97.14,0,0,1,12.5,25Z"/></svg>