<svg id="Layer_1" data-name="Layer 1" xmlns="http://www.w3.org/2000/svg" viewBox="0 0 144 144"><title>traffic_light</title><path d="M117,45h-9V36l9-18h-9a9.15,9.15,0,0,0-.4-2.68A9,9,0,0,0,99,9H45a9,9,0,0,0-9,9H27l9,18v9H27l9,18v9H27l9,18v17c0,.35,0,.69,0,1a9.78,9.78,0,0,0,.74,2.87,7.85,7.85,0,0,0,.42.88A10,10,0,0,0,46,117H67v18H77V117H98a10,10,0,0,0,8.79-5.23,7.85,7.85,0,0,0,.42-.88A9.78,9.78,0,0,0,108,108c0-.33,0-.67,0-1V90l9-18h-9V63ZM46,107V19H98v9h0v5.64h0V55h0v5.64h0V82h0v5.63h0V107Z"/><circle cx="72" cy="36" r="9"/><circle cx="72" cy="63" r="9"/><circle cx="72" cy="90" r="9"/></svg>