<svg id="Layer_1" data-name="Layer 1" xmlns="http://www.w3.org/2000/svg" viewBox="0 0 144 144"><title>tram_dis</title><path d="M24.75,95.42V89.81a32.27,32.27,0,0,1,.3-4.31H39.41L51.75,73.16V67.5H34.12a31.2,31.2,0,0,1,21.94-9H66.41l9-9H56.06A40.35,40.35,0,0,0,15.75,89.81v5.61a17,17,0,0,0,3.47,10.27l6.48-6.48A8.06,8.06,0,0,1,24.75,95.42Z"/><polygon points="92.25 22.5 99 22.5 100.46 24.45 111.41 13.5 65.25 13.5 65.25 22.5 81 22.5 90.17 34.73 96.6 28.3 92.25 22.5"/><polygon points="128.25 112.5 128.25 103.5 59.59 103.5 50.59 112.5 128.25 112.5"/><polygon points="104.59 58.5 128.25 58.5 128.25 49.5 113.59 49.5 104.59 58.5"/><rect x="101.25" y="67.5" width="27" height="18"/><polygon points="90.46 85.5 90.46 72.63 77.59 85.5 90.46 85.5"/><polygon points="128.25 130.5 128.25 121.5 41.59 121.5 32.59 130.5 128.25 130.5"/><rect x="-4.37" y="67.5" width="152.74" height="9" transform="translate(-29.82 71.99) rotate(-45)"/></svg>