<svg id="Layer_1" data-name="Layer 1" xmlns="http://www.w3.org/2000/svg" viewBox="0 0 144 144"><title>tram</title><path d="M128.25,13.5h-63v9H81L91.12,36,81,49.5H56.06A40.35,40.35,0,0,0,15.75,89.81v5.61A17.1,17.1,0,0,0,32.83,112.5h95.42v-9H32.83a8.1,8.1,0,0,1-8.08-8.08V89.81a32.27,32.27,0,0,1,.3-4.31h26.7v-18H34.12a31.2,31.2,0,0,1,21.94-9h72.19v-9h-18L120.38,36,110.25,22.5h18ZM99,49.5H92.25L102.38,36,92.25,22.5H99L109.12,36Z"/><rect x="101.25" y="67.5" width="27" height="18"/><rect x="63.46" y="67.5" width="27" height="18"/><rect x="15.75" y="121.5" width="112.5" height="9"/></svg>