<svg id="Layer_1" data-name="Layer 1" xmlns="http://www.w3.org/2000/svg" viewBox="0 0 144 144"><title>trash</title><rect x="49.5" y="72" width="9" height="45"/><rect x="67.5" y="72" width="9" height="45"/><rect x="85.5" y="72" width="9" height="45"/><path d="M107.2,31.3,93.89,29.05l.83-4.93,1.5-8.87-8.88-1.5-17.75-3L60.72,9.27l-1.5,8.87-.83,4.93L45.08,20.83l-8.87-1.5-1.5,8.88-.83,4.93L32.38,42l8.88,1.5L103.38,54l.14,0h-72v81h81V54l1.25-7.44.83-4.93,1.5-8.88ZM68.1,19.64l17.75,3L85,27.56l-17.75-3Zm-25.35,15,.83-4.93,16.28,2.75,5.91,1h0l17.75,3h0l8.88,1.5h0l13.31,2.24-.83,4.93ZM103.5,126h-63V63h63Z"/></svg>