<svg id="Layer_1" data-name="Layer 1" xmlns="http://www.w3.org/2000/svg" viewBox="0 0 117 117"><title>users_alt</title><path d="M83.86,25c8.1,0,14.69,7.87,14.69,17.55a18.79,18.79,0,0,1-5.76,13.9,13.05,13.05,0,0,1-8.93,3.64,12.58,12.58,0,0,1-1.5-.09c-.17,0-.33-.07-.5-.09-.33-.06-.65-.11-1-.19l-.06,0c.27-.44.51-.9.75-1.36l.28-.51c.37-.74.72-1.5,1-2.27.08-.18.14-.37.21-.55q.36-.9.66-1.8c.1-.29.18-.57.27-.86.15-.53.3-1.05.44-1.59.08-.31.15-.62.22-.94.12-.53.22-1.06.31-1.59.06-.32.11-.63.16-.95.08-.57.15-1.15.2-1.74,0-.27.06-.54.08-.82.07-.86.11-1.72.11-2.58s0-1.66-.1-2.48c0-.26,0-.52-.07-.78,0-.56-.11-1.12-.19-1.68,0-.3-.09-.6-.14-.9-.09-.52-.18-1-.29-1.54-.07-.3-.13-.6-.2-.9-.13-.52-.27-1-.42-1.57-.08-.26-.15-.52-.23-.78-.21-.66-.43-1.31-.68-2l-.12-.33q-.44-1.11-1-2.19c-.1-.21-.22-.42-.32-.63-.19-.37-.38-.76-.58-1.12A12.07,12.07,0,0,1,83.86,25ZM60.72,68.12a16.5,16.5,0,0,1-4.44,0h0A20.14,20.14,0,0,1,45,62.79a23.49,23.49,0,0,1-3-3.37h0a29,29,0,0,1-5.54-17.28,29.31,29.31,0,0,1,5.13-16.75C45.79,19.42,52,16,58.5,16s12.71,3.42,16.92,9.39a29.31,29.31,0,0,1,5.13,16.75A29,29,0,0,1,75,59.42a24.16,24.16,0,0,1-3,3.37,15.71,15.71,0,0,1-1.25,1.07,19.74,19.74,0,0,1-10,4.26ZM33.14,25a12.07,12.07,0,0,1,2.61.29c-.2.36-.39.75-.58,1.12-.1.21-.22.42-.32.63q-.52,1.08-1,2.19l-.12.33c-.25.64-.47,1.29-.68,2-.08.26-.15.52-.23.78-.15.52-.29,1-.42,1.57-.07.3-.13.6-.2.9-.11.51-.2,1-.29,1.54-.05.3-.1.6-.14.9-.08.56-.14,1.12-.19,1.68,0,.26-.05.52-.07.78-.06.82-.1,1.65-.1,2.48s0,1.72.11,2.58c0,.28.05.55.08.82.05.59.12,1.17.2,1.74.05.32.1.63.16.95.09.53.19,1.06.31,1.59.07.31.14.63.22,1,.14.53.29,1,.44,1.58.09.28.17.57.27.86.2.6.42,1.2.65,1.79.08.18.14.38.22.56.32.77.67,1.53,1,2.27l.28.51c.25.46.49.92.75,1.36l-.06,0c-.33.08-.65.13-1,.19-.17,0-.33.07-.5.09a12.58,12.58,0,0,1-1.5.09,12.71,12.71,0,0,1-3.58-.52,13.74,13.74,0,0,1-5.35-3.12,18.79,18.79,0,0,1-5.76-13.9C18.45,32.87,25,25,33.14,25ZM7,74.05c0-4.19,5.55-10,14.92-13l.12.09c.28.22.57.41.85.61l.56.4c.4.25.81.49,1.22.71l.24.14a17.68,17.68,0,0,0,8.23,2.07c.51,0,1,0,1.53-.07h.17l-1.79.83-.4.21c-.54.27-1.07.55-1.59.83-.19.1-.38.2-.56.31q-.86.48-1.68,1l-.19.11c-.6.37-1.18.76-1.74,1.15l-.48.34c-.43.31-.86.62-1.28,1l-.41.31c-.52.41-1,.83-1.51,1.26l-.28.26c-.39.36-.78.71-1.14,1.08L21.4,74c-.39.4-.77.8-1.13,1.21l-.14.16c-.4.46-.77.92-1.12,1.39l-.28.39c-.27.37-.53.75-.77,1.12l-.23.37c-.3.48-.57,1-.82,1.44,0,.09-.08.19-.13.28-.13.27-.27.54-.38.81C12.19,80.09,7,77.94,7,74.05Zm51.5,27c-23.33,0-38.41-5.44-38.41-13.86a9,9,0,0,1,.33-2.34h0a13.61,13.61,0,0,1,.44-1.32c.06-.15.14-.3.21-.45s.25-.58.4-.87.21-.35.31-.53.29-.52.46-.78.26-.37.39-.56.35-.49.54-.74.31-.37.46-.56.39-.48.6-.71.36-.38.54-.57l.67-.68c.19-.19.4-.37.6-.56l.73-.66.67-.54.79-.64L29,74.1c.28-.2.56-.41.86-.61l.76-.5c.3-.2.61-.39.92-.58s.53-.33.81-.49l1-.55.85-.45,1-.52L36,70l1.06-.48.93-.4,1.1-.43,1-.37,1.13-.39,1-.33.5-.15.25.19c.21.18.43.34.65.51l.9.66.68.46.93.57.71.41,1,.5.73.35c.33.15.67.29,1,.42l.72.29,1.08.36.7.22c.4.11.8.2,1.21.29l.6.14c.61.13,1.22.23,1.84.3h0a22,22,0,0,0,5.62,0h0c.62-.07,1.23-.17,1.84-.3l.6-.14c.41-.09.81-.18,1.21-.29l.7-.22,1.08-.36.72-.29c.34-.13.68-.27,1-.42l.73-.35,1-.5.71-.41c.31-.18.62-.38.93-.58l.68-.45.9-.66c.22-.17.44-.33.65-.51l.25-.19.5.15,1,.33,1.13.39,1,.37,1.1.43.93.4L81,70l.89.43,1,.52.85.45,1,.55c.28.16.55.32.81.49s.62.38.92.58l.76.5c.3.2.58.41.86.61l.72.53.79.64.67.54.73.66c.2.19.41.37.6.56l.67.68c.18.19.37.38.54.57s.4.47.6.71.32.37.46.56.36.5.54.74.27.37.39.56.31.52.46.78.22.35.31.53.27.58.4.87.15.3.21.45a13.61,13.61,0,0,1,.44,1.32h0a9,9,0,0,1,.33,2.34C96.91,95.56,81.83,101,58.5,101Zm42.1-19.8c-.11-.27-.25-.54-.38-.81,0-.09-.09-.19-.13-.28-.25-.48-.52-1-.82-1.44L99,78.3c-.24-.37-.5-.75-.77-1.12L98,76.79c-.35-.47-.72-.93-1.12-1.39l-.14-.16c-.36-.41-.74-.81-1.13-1.21-.12-.13-.26-.26-.39-.39-.36-.37-.75-.72-1.14-1.08l-.28-.26c-.49-.43-1-.85-1.51-1.26l-.41-.31c-.42-.33-.85-.64-1.28-1l-.48-.34c-.56-.39-1.14-.78-1.74-1.15l-.19-.11q-.83-.51-1.68-1c-.18-.11-.37-.21-.56-.31-.52-.28-1-.56-1.59-.83l-.4-.21L82.16,65h.17c.51,0,1,.07,1.53.07A17.68,17.68,0,0,0,92.09,63l.25-.15c.41-.22.81-.45,1.21-.7l.57-.4c.28-.2.56-.39.84-.61a.94.94,0,0,0,.12-.09C104.45,64,110,69.86,110,74.05,110,77.94,104.81,80.09,100.6,81.2Z"/></svg>