<svg id="Layer_1" data-name="Layer 1" xmlns="http://www.w3.org/2000/svg" viewBox="0 0 144 144"><title>user_remove</title><path d="M87.37,100.28c12.83,4.94,19.52,12.88,19.52,16.21,0,.33-1.46,2.67-7.9,5C91,124.4,79,126,65.13,126s-25.91-1.6-33.86-4.49c-6.44-2.35-7.9-4.69-7.9-5,0-3.33,6.69-11.27,19.53-16.21a40.25,40.25,0,0,0,44.47,0m-1.56-10a31.51,31.51,0,0,1-41.35,0c-17,5.11-30.09,16.44-30.09,26.24C14.37,127.73,34.3,135,65.13,135s50.76-7.27,50.76-18.51c0-9.8-13.09-21.13-30.08-26.24Z"/><path d="M65.13,31.73c11.17,0,20.26,11.5,20.26,25.64,0,8.25-3.07,15.8-8.43,20.73a16.72,16.72,0,0,1-23.65,0C48,73.17,44.87,65.62,44.87,57.37c0-14.14,9.09-25.64,20.26-25.64m0-9C49,22.73,35.87,38.27,35.87,57.37c0,10.76,4.14,20.73,11.35,27.36h0a25.71,25.71,0,0,0,35.83,0h0c7.21-6.63,11.34-16.6,11.34-27.36,0-19.1-13.12-34.64-29.26-34.64Z"/><rect x="97.25" y="26.77" width="27.88" height="1.35"/><polygon points="129.63 22.27 116.36 22.27 106.01 22.27 92.75 22.27 92.75 32.61 106.01 32.61 116.36 32.61 129.63 32.61 129.63 22.27 129.63 22.27"/></svg>