<svg id="Layer_1" data-name="Layer 1" xmlns="http://www.w3.org/2000/svg" viewBox="0 0 144 144"><title>users</title><path d="M41,31c-9.9,0-18,9.63-18,21.46a23,23,0,0,0,7,17,16.84,16.84,0,0,0,6.55,3.81A15.35,15.35,0,0,0,41,74a14.1,14.1,0,0,0,1.84-.12c.21,0,.41-.08.62-.11.39-.07.79-.13,1.19-.23l.07,0c-.32-.54-.61-1.1-.91-1.66l-.34-.63c-.46-.9-.89-1.83-1.28-2.77-.09-.23-.17-.47-.26-.7-.29-.72-.56-1.44-.8-2.18-.12-.35-.22-.71-.33-1.06-.19-.64-.37-1.28-.54-1.93L40,61.38c-.14-.65-.27-1.29-.38-1.94-.07-.39-.14-.78-.19-1.16-.11-.71-.18-1.42-.25-2.13,0-.34-.08-.67-.1-1-.08-1-.12-2.1-.12-3.16s0-2,.11-3c0-.33.06-.65.09-1,.06-.68.13-1.36.23-2,0-.37.11-.74.17-1.11q.16-.95.36-1.89l.24-1.09c.16-.64.33-1.28.52-1.92.09-.32.17-.64.27-1,.26-.8.54-1.6.84-2.38,0-.13.09-.27.14-.41.36-.91.76-1.8,1.18-2.67.12-.27.26-.52.39-.77.24-.46.46-.93.71-1.38A14.94,14.94,0,0,0,41,31Z"/><path d="M72,29c5,0,9.9,2.8,13.34,7.68A26.64,26.64,0,0,1,90,52a26.38,26.38,0,0,1-5,15.76,20.77,20.77,0,0,1-2.57,2.88c-.34.31-.69.61-1,.89a15.56,15.56,0,0,1-7.72,3.33,11.4,11.4,0,0,1-3.3,0,15.77,15.77,0,0,1-8.75-4.21,20.37,20.37,0,0,1-2.49-2.77L59,67.74A26.38,26.38,0,0,1,54,52a26.64,26.64,0,0,1,4.63-15.29C62.1,31.81,67,29,72,29m0-9C64,20,56.45,24.2,51.3,31.5A35.78,35.78,0,0,0,45,52a35.47,35.47,0,0,0,6.78,21.15h0a29.51,29.51,0,0,0,3.7,4.12,24.63,24.63,0,0,0,13.77,6.52h0a19.56,19.56,0,0,0,5.44,0h0A24.25,24.25,0,0,0,87,78.56c.53-.41,1-.85,1.54-1.31a30.77,30.77,0,0,0,3.69-4.12A35.47,35.47,0,0,0,99,52,35.78,35.78,0,0,0,92.7,31.5C87.55,24.2,80,20,72,20Z"/><path d="M103,31a14.94,14.94,0,0,0-3.2.35c.25.45.47.92.71,1.38.13.25.27.5.39.77.42.87.82,1.76,1.18,2.67,0,.14.09.28.14.41.3.78.58,1.58.84,2.38.1.32.18.64.27,1,.19.64.36,1.28.52,1.92l.24,1.09q.19.94.36,1.89c.06.37.12.74.17,1.11.1.68.17,1.36.23,2,0,.32.07.64.09,1,.07,1,.11,2,.11,3s0,2.11-.12,3.16c0,.34-.07.67-.1,1-.07.71-.14,1.42-.25,2.13,0,.38-.12.77-.19,1.15-.11.66-.24,1.31-.38,2l-.27,1.15c-.17.66-.35,1.3-.54,2-.11.35-.21.7-.32,1-.25.75-.52,1.48-.81,2.21-.09.22-.17.45-.26.68-.39.94-.82,1.86-1.28,2.77l-.34.62c-.3.56-.59,1.13-.91,1.67l.07,0c.4.1.8.16,1.2.23.2,0,.4.09.61.11A14.1,14.1,0,0,0,103,74,16,16,0,0,0,114,69.5a23,23,0,0,0,7-17C121,40.65,112.93,31,103,31Z"/><path d="M27.25,75.15C15.79,78.73,9,85.89,9,91c0,4.75,6.35,7.4,11.49,8.75q.23-.49.48-1a3.54,3.54,0,0,1,.16-.34q.45-.89,1-1.77c.09-.15.19-.3.29-.45.3-.46.61-.91.93-1.36l.35-.48c.43-.57.88-1.14,1.37-1.7l.18-.2c.43-.5.89-1,1.37-1.48l.48-.48c.45-.45.91-.89,1.4-1.32l.34-.32c.6-.52,1.21-1,1.85-1.54l.5-.38c.51-.4,1-.79,1.57-1.17l.58-.41q1-.72,2.13-1.41l.23-.13c.67-.42,1.36-.82,2.06-1.21l.68-.38c.64-.35,1.28-.68,1.94-1l.5-.26q1.08-.53,2.19-1h-.21c-.62.06-1.25.09-1.88.09a21.63,21.63,0,0,1-10.06-2.53l-.29-.17c-.51-.28-1-.56-1.49-.88-.24-.15-.46-.32-.69-.48s-.7-.48-1-.74l-.15-.11Z"/><path d="M116.75,75.15l-.15.11c-.34.26-.68.5-1,.74s-.46.33-.7.48q-.72.47-1.47.87l-.31.18A21.63,21.63,0,0,1,103,80.06c-.63,0-1.26,0-1.88-.09h-.21q1.11.5,2.19,1l.5.26c.66.33,1.3.66,1.94,1l.68.38c.7.39,1.39.79,2.06,1.21l.23.13q1.09.69,2.13,1.41l.58.41c.54.38,1.06.77,1.57,1.17l.5.38c.64.5,1.25,1,1.85,1.54l.34.32c.49.43.95.87,1.4,1.32l.48.48c.48.49.94,1,1.37,1.48.06.07.13.13.18.2.49.56.94,1.13,1.37,1.7l.35.48c.32.45.63.9.93,1.36.1.15.2.3.29.45q.54.89,1,1.77a3.54,3.54,0,0,1,.16.34q.25.5.48,1c5.14-1.35,11.49-4,11.49-8.75,0-5.13-6.79-12.29-18.25-15.87Z"/><path d="M92.77,92.94l.83.34,1,.41,1.09.5.93.44,1,.53.88.47,1,.56c.28.16.56.32.82.49s.62.39.92.59l.07,0,.7.46c.28.19.56.4.84.6l.14.1c.19.14.38.27.55.41s.48.37.71.56l.06,0,.19.16.44.35.58.53.1.09.19.17.36.34.46.47.12.13.22.23a3.07,3.07,0,0,1,.25.26l.35.42.15.17.22.27c.06.06.11.13.17.2l.26.36.14.2.22.31.09.13.18.31.11.19c.07.13.15.26.23.39v0c0,.1.09.2.14.31l.06.14.18.4c.06.16.11.32.15.46a3.27,3.27,0,0,1,.09.42c-1,1.76-10.17,8.07-38,8.07s-37-6.31-38-8.07c0-.09,0-.23.09-.42s.09-.3.15-.46.12-.27.18-.39l.06-.15.14-.31v0c.08-.13.16-.26.23-.39l.11-.19c.06-.11.12-.22.18-.31l.09-.13.23-.32.13-.19.27-.37c0-.06.1-.13.16-.19l.22-.27.15-.17.35-.42L37,102l.23-.24.12-.13.47-.48.35-.33.2-.17.09-.09.59-.53.45-.37.17-.14.06,0,.7-.55c.17-.14.36-.27.54-.41l.17-.12.83-.59.7-.46.07,0,.91-.58.82-.49,1-.56.87-.47,1.06-.53.92-.44,1.1-.5,1-.41.85-.34,1.05.64c.38.22.75.44,1.13.64s1,.52,1.51.79c.38.19.77.38,1.15.55.58.27,1.13.49,1.6.68l.17.07,1,.39c.6.22,1.15.39,1.71.57l.2.06c.31.1.61.2.91.28.69.2,1.31.34,1.93.48l.13,0c.28.07.56.14.84.19,1,.2,2,.36,2.94.47a35.21,35.21,0,0,0,9,0c.95-.11,1.94-.27,2.95-.47.27,0,.55-.12.83-.19l.12,0c.63-.14,1.25-.28,1.93-.48.31-.08.62-.18.92-.28l.2-.06c.53-.17,1.1-.35,1.72-.58l1-.38.15-.07c.47-.18,1-.41,1.6-.68.39-.17.77-.36,1.15-.55.55-.27,1.05-.52,1.52-.78s.75-.43,1.12-.65.7-.41,1.06-.64m-1.47-10-.3.23-.79.61c-.37.28-.73.55-1.1.81l-.84.56c-.38.25-.76.48-1.14.71l-.87.49c-.39.22-.78.42-1.18.62l-.88.42c-.41.19-.82.36-1.24.53l-.88.35c-.44.16-.88.29-1.32.43l-.85.27c-.49.14-1,.25-1.49.36-.24.06-.48.13-.73.18-.74.14-1.49.27-2.25.36h0a27,27,0,0,1-6.88,0h0c-.76-.09-1.51-.22-2.25-.36-.25,0-.49-.12-.74-.18-.49-.11-1-.22-1.47-.36-.29-.08-.58-.18-.86-.27-.44-.14-.88-.27-1.31-.43s-.6-.24-.89-.36-.83-.33-1.23-.52-.6-.28-.89-.42-.79-.4-1.18-.62l-.87-.49c-.38-.23-.76-.46-1.13-.71s-.57-.37-.85-.56-.73-.53-1.1-.81L53,83.15l-.3-.23-.61.18-1.23.4L49.48,84l-1.19.45L47,85l-1.14.49c-.44.19-.87.38-1.29.58l-1.1.53c-.42.2-.83.41-1.24.63l-1,.56L40,88.42,39,89c-.38.23-.75.47-1.11.71s-.64.41-.94.62l-1,.75-.88.64-1,.78c-.27.22-.55.44-.81.67s-.6.53-.9.81-.5.45-.73.68-.55.55-.82.83-.45.46-.66.7-.49.57-.73.86-.4.46-.58.7-.43.6-.64.9-.34.45-.48.68-.39.64-.57,1l-.38.64c-.18.35-.33.71-.49,1.07-.08.18-.18.36-.25.54a12.82,12.82,0,0,0-.54,1.62A11,11,0,0,0,25,107c0,10.3,18.45,17,47,17s47-6.66,47-17a11,11,0,0,0-.41-2.86h0a12.82,12.82,0,0,0-.54-1.62c-.07-.18-.17-.36-.25-.54-.16-.36-.31-.72-.49-1.07l-.38-.64c-.18-.32-.36-.64-.57-1s-.32-.45-.48-.68-.41-.61-.64-.9-.39-.47-.58-.7-.47-.58-.73-.86-.44-.47-.66-.7-.53-.56-.82-.83-.49-.46-.73-.68-.59-.55-.9-.81-.54-.45-.81-.67l-1-.78-.88-.64-1.05-.75c-.3-.21-.62-.41-.94-.62s-.73-.48-1.11-.71l-1-.59-1.18-.67-1.05-.56c-.41-.22-.82-.43-1.24-.63L99.48,86c-.42-.2-.85-.39-1.29-.58L97.05,85l-1.34-.53L94.52,84l-1.38-.48-1.23-.4-.61-.18Z"/></svg>