<svg id="Layer_1" data-name="Layer 1" xmlns="http://www.w3.org/2000/svg" viewBox="0 0 144 144"><title>user</title><path d="M96.81,94.81c14.46,5.43,23.16,14.6,23.16,19.41,0,1.28-2.56,4.1-9.59,6.67-9,3.3-22.67,5.11-38.38,5.11s-29.34-1.81-38.38-5.11c-7-2.57-9.59-5.39-9.59-6.67,0-4.81,8.7-14,23.16-19.41a44.1,44.1,0,0,0,49.62,0m-1.6-10a35.37,35.37,0,0,1-46.42,0C29.73,90.51,15,103.23,15,114.22,15,126.84,37.39,135,72,135s57-8.16,57-20.78c0-11-14.7-23.71-33.76-29.45Z"/><path d="M72,18c13.15,0,23.84,13.4,23.84,29.87,0,9.57-3.58,18.34-9.82,24.08a19.87,19.87,0,0,1-28,0c-6.24-5.74-9.82-14.51-9.82-24.08C48.16,31.4,58.85,18,72,18m0-9C53.89,9,39.16,26.44,39.16,47.87c0,12.08,4.64,23.27,12.73,30.71h0a28.86,28.86,0,0,0,40.22,0h0c8.09-7.44,12.73-18.63,12.73-30.71C104.84,26.44,90.11,9,72,9Z"/></svg>